<?xml version="1.0" encoding="utf-8"?>
<!-- Generator: Adobe Illustrator 16.0.0, SVG Export Plug-In . SVG Version: 6.00 Build 0)  -->
<svg version="1.2" baseProfile="tiny" id="Layer_1" xmlns="http://www.w3.org/2000/svg" xmlns:xlink="http://www.w3.org/1999/xlink"
	 x="0px" y="0px" viewBox="0 0 840.054 840.054" xml:space="preserve">
<path fill="none" d="M268.041,652.339c9.289-9.595,9.629-10.795,10.163-35.879c0.51-24.127-0.11-27.222-8.89-44.088
	c-11.378-21.873-26.919-63.628-26.919-72.349c0-14.001-5.891-23.933-15.3-25.812c-5.026-1.01-13.177-6.247-18.117-11.634
	c-11.779-12.859-22.076-54.18-22.016-88.278c0.049-21.493,0.718-24.372,6.874-29.204c6.374-5.014,6.944-8.062,8.862-46.811
	c4.324-87.269,9.982-112.731,32.676-146.851c23.364-35.154,28.586-39.683,66.651-57.896c56.281-26.91,58.08-27.396,95.696-25.331
	c78.77,4.324,138.064,25.294,175.363,62.001c17.027,16.756,25.572,32.712,39.232,73.269c8.926,26.495,9.062,27.661,8.599,80.409
	c-0.464,53.438-0.448,53.548,7.262,64.89c8.692,12.786,9.434,22.376,4.847,62.292c-2.587,22.488-4.021,26.314-16.734,44.747
	c-21.215,30.721-24.299,37.885-26.847,62.447c-1.298,12.483-4.641,30.433-7.433,39.881c-7.72,26.168-5.1,41.731,11.025,65.327
	c24.361,35.635,34.61,41.491,98.248,56.171c18.071,4.158,82.271,20.927,148.769,38.827V0H0.5v786.296
	C120.097,733.365,254.975,665.828,268.041,652.339z"/>
<path fill="#010101" d="M593.037,623.468c-16.125-23.596-18.745-39.159-11.025-65.327c2.792-9.448,6.135-27.397,7.433-39.881
	c2.548-24.562,5.632-31.727,26.847-62.447c12.713-18.433,14.147-22.259,16.734-44.747c4.587-39.916,3.846-49.505-4.847-62.292
	c-7.71-11.341-7.726-11.451-7.262-64.89c0.464-52.748,0.327-53.914-8.599-80.409c-13.66-40.557-22.205-56.513-39.232-73.269
	C535.787,93.5,476.492,72.53,397.723,68.206c-37.616-2.064-39.415-1.579-95.696,25.331c-38.065,18.213-43.287,22.742-66.651,57.896
	c-22.693,34.12-28.352,59.583-32.676,146.851c-1.918,38.749-2.488,41.796-8.862,46.811c-6.156,4.832-6.825,7.711-6.874,29.204
	c-0.061,34.098,10.236,75.419,22.016,88.278c4.94,5.388,13.091,10.624,18.117,11.634c9.409,1.879,15.3,11.81,15.3,25.812
	c0,8.721,15.541,50.476,26.919,72.349c8.779,16.866,9.399,19.96,8.89,44.088c-0.534,25.084-0.874,26.285-10.163,35.879
	C254.975,665.828,120.097,733.365,0.5,786.296v53.258h839.554V718.466c-66.498-17.9-130.697-34.669-148.769-38.827
	C627.647,664.959,617.398,659.103,593.037,623.468z"/>
</svg>
